<svg xmlns="http://www.w3.org/2000/svg" xmlns:xlink="http://www.w3.org/1999/xlink" viewBox="0 0 29.73 19.75"><defs><style>.cls-1{fill:#f15aa2;}.cls-2{fill:none;stroke:#373737;stroke-miterlimit:10;stroke-width:1.5px;}</style><symbol id="Or" data-name="Or" viewBox="0 0 29.73 19.75"><path class="cls-1" d="M19.89.75A9.13,9.13,0,1,1,10.8,9.87,9.1,9.1,0,0,1,19.89.75Z"/><path class="cls-1" d="M9.84.75A9.13,9.13,0,1,1,.75,9.87,9.11,9.11,0,0,1,9.84.75Z"/><path class="cls-2" d="M19.89.75A9.13,9.13,0,1,1,10.8,9.87,9.1,9.1,0,0,1,19.89.75Z"/><path class="cls-2" d="M9.84.75A9.13,9.13,0,1,1,.75,9.87,9.1,9.1,0,0,1,9.84.75Z"/></symbol></defs><title>Asset 1</title><g id="Layer_2" data-name="Layer 2"><g id="Layer_2-2" data-name="Layer 2"><use id="Or-3" data-name="Or" width="29.73" height="19.75" xlink:href="#Or"/></g></g></svg>