<?xml version="1.0" encoding="UTF-8" standalone="no"?>
<!DOCTYPE svg PUBLIC "-//W3C//DTD SVG 1.1//EN" "http://www.w3.org/Graphics/SVG/1.1/DTD/svg11.dtd">
<svg width="100%" height="100%" viewBox="0 0 1920 1080" version="1.1" xmlns="http://www.w3.org/2000/svg" xmlns:xlink="http://www.w3.org/1999/xlink" xml:space="preserve" xmlns:serif="http://www.serif.com/" style="fill-rule:evenodd;clip-rule:evenodd;stroke-linejoin:round;stroke-miterlimit:1.41421;">
    <rect id="Page-1" serif:id="Page 1" x="0" y="0" width="1920" height="1080" style="fill:none;"/>
    <clipPath id="_clip1">
        <rect id="Page-11" serif:id="Page 1" x="0" y="0" width="1920" height="1080"/>
    </clipPath>
    <g clip-path="url(#_clip1)">
        <g id="logo" transform="matrix(3.24003,0,0,3.24003,-2169.01,-642.435)">
            <g transform="matrix(1,0,0,1,669.441,423.412)">
                <path d="M0,-116.933L1.44,-4.235L422.313,96.134L429.074,61.095L518.821,75.847L527.428,38.965L560.623,45.112L592.587,-85.206L552.016,-181.511L153.684,-213.067L116.494,-176.183L114.958,-110.102L0,-116.933Z" style="fill:white;fill-rule:nonzero;"/>
            </g>
            <g transform="matrix(1,0,0,1,813.649,255.191)">
                <path d="M0,45.336L-0.054,-3.857L18.752,-19.068M18.752,-19.068L18.752,41.735C19.009,43.812 20.242,44.98 22.447,45.242L28.735,45.571L28.735,64.404L14.284,63.648C12.079,63.348 10.195,62.679 8.632,61.638C7.067,60.6 5.755,59.398 4.688,58.036C3.621,56.673 2.767,55.248 2.124,53.759C1.48,52.271 0.994,50.902 0.663,49.65C0.331,48.4 0.129,47.368 0.055,46.553C-0.018,45.74 -0.036,45.335 0,45.336" style="fill:rgb(144,39,142);fill-rule:nonzero;"/>
            </g>
            <g transform="matrix(1,0,0,1,887.224,249.114)">
                <path d="M0,-13.881L-18.752,-4.204L-17.813,-9.181L0.937,-18.858L0,-13.881ZM-0.771,-4.698L-19.524,4.977L-18.587,0.002L0.166,-9.674L-0.771,-4.698Z" style="fill:rgb(144,39,142);fill-rule:nonzero;"/>
            </g>
            <g transform="matrix(1,0,0,1,868.691,310.965)">
                <path d="M0,-19.869C0.256,-18.309 0.753,-16.745 1.49,-15.179C2.223,-13.613 3.069,-12.141 4.026,-10.767C4.981,-9.391 6.003,-8.131 7.087,-6.989C8.171,-5.845 9.191,-4.918 10.148,-4.204C12.941,-5.789 15.075,-7.426 16.545,-9.116C18.017,-10.806 18.917,-12.369 19.249,-13.807C19.58,-15.244 19.376,-16.442 18.641,-17.401C17.906,-18.359 16.71,-18.882 15.057,-18.968C5.02,-19.606 0,-19.905 0,-19.869M-14.506,-9.583C-17.264,-14.071 -19.019,-18.611 -19.772,-23.198C-20.527,-27.784 -20.297,-32.696 -19.083,-37.935L21.675,-35.798C26.087,-35.126 29.562,-33.802 32.099,-31.828C34.635,-29.853 36.419,-27.524 37.449,-24.837C38.478,-22.15 38.817,-19.243 38.469,-16.113C38.118,-12.984 37.264,-9.926 35.905,-6.941L46.659,-6.378L46.659,12.455L21.179,11.119C20.884,11.288 20.406,11.576 19.745,11.983C19.083,12.39 18.338,12.849 17.51,13.357C16.684,13.865 15.818,14.392 14.917,14.933C14.017,15.475 13.189,15.975 12.436,16.432C11.683,16.89 11.059,17.273 10.562,17.577C10.065,17.883 9.797,18.034 9.762,18.032C9.688,18.066 9.385,17.912 8.852,17.57C8.319,17.23 7.667,16.783 6.894,16.225C6.122,15.669 5.294,15.064 4.412,14.41C3.529,13.756 2.684,13.124 1.875,12.51C1.066,11.897 0.367,11.354 -0.22,10.881C-0.81,10.409 -1.195,10.094 -1.379,9.937L-28.127,8.536L-28.127,-10.297L-14.506,-9.583Z" style="fill:rgb(144,39,142);fill-rule:nonzero;"/>
            </g>
            <g transform="matrix(1,0,0,1,960.631,320.5)">
                <path d="M0,-18.566C-3.015,-18.649 -5.571,-18.498 -7.667,-18.111C-9.762,-17.725 -11.473,-17.15 -12.795,-16.392C-14.12,-15.632 -15.085,-14.753 -15.692,-13.755C-16.298,-12.755 -16.62,-11.714 -16.656,-10.629C-16.694,-9.545 -16.492,-8.447 -16.05,-7.34C-15.608,-6.229 -14.966,-5.193 -14.12,-4.228C-12.833,-2.761 -11.335,-1.561 -9.625,-0.624C-7.915,0.313 -6.233,0.732 -4.579,0.635C-2.813,0.581 -1.427,0.184 -0.414,-0.556C0.598,-1.294 1.315,-2.223 1.737,-3.342C2.159,-4.461 2.361,-5.711 2.344,-7.093C2.325,-8.476 2.185,-9.863 1.93,-11.257C1.672,-12.651 1.358,-13.994 0.992,-15.283C0.625,-16.573 0.293,-17.667 0,-18.566M15.663,7.881C13.457,11.118 10.948,13.562 8.133,15.218C5.321,16.875 2.379,17.89 -0.69,18.264C-3.761,18.635 -6.858,18.445 -9.982,17.693C-13.108,16.94 -16.06,15.746 -18.834,14.109C-21.611,12.472 -24.121,10.472 -26.364,8.108C-28.607,5.746 -30.39,3.148 -31.713,0.317C-32.595,1.229 -33.58,1.941 -34.665,2.454C-35.749,2.969 -36.935,3.247 -38.221,3.29L-47.377,2.81L-47.377,-16.023L-45.17,-15.907C-42.523,-15.768 -40.171,-16.013 -38.111,-16.642C-36.199,-17.204 -34.683,-17.972 -33.561,-18.943C-32.439,-19.915 -31.456,-21.006 -30.61,-22.213C-29.764,-23.42 -28.92,-24.693 -28.074,-26.029C-27.228,-27.365 -26.142,-28.661 -24.819,-29.918C-22.578,-32.12 -20.123,-33.787 -17.456,-34.916C-14.79,-36.048 -12.005,-36.739 -9.1,-36.992C-7.63,-37.136 -6.243,-37.201 -4.938,-37.187C-3.632,-37.174 -2.336,-37.078 -1.048,-36.901C0.239,-36.724 1.534,-36.452 2.839,-36.089C4.144,-35.727 5.533,-35.267 7.003,-34.712C9.173,-33.898 11.047,-32.492 12.63,-30.496C14.209,-28.498 15.488,-26.176 16.462,-23.529C17.436,-20.882 18.145,-18.048 18.586,-15.023C19.027,-11.999 19.201,-9.045 19.108,-6.16C19.019,-3.274 18.678,-0.594 18.088,1.878C17.5,4.351 16.693,6.353 15.663,7.881" style="fill:rgb(144,39,142);fill-rule:nonzero;"/>
            </g>
            <g transform="matrix(1,0,0,1,1089.03,292.612)">
                <path d="M0,2.519C-3.016,2.436 -5.581,2.587 -7.695,2.973C-9.81,3.358 -11.528,3.931 -12.853,4.689C-14.175,5.45 -15.141,6.33 -15.748,7.327C-16.354,8.327 -16.675,9.378 -16.711,10.48C-16.749,11.583 -16.529,12.681 -16.049,13.773C-15.572,14.866 -14.93,15.894 -14.12,16.857C-12.87,18.323 -11.391,19.513 -9.681,20.43C-7.97,21.349 -6.288,21.778 -4.633,21.717C-2.869,21.664 -1.482,21.274 -0.469,20.555C0.541,19.834 1.258,18.905 1.682,17.768C2.104,16.631 2.306,15.371 2.287,13.989C2.27,12.608 2.14,11.21 1.901,9.798C1.663,8.388 1.351,7.045 0.965,5.774C0.579,4.502 0.256,3.416 0,2.519M-28.238,-38.89L-15.994,-25.987L-28.238,-14.369L-40.482,-27.272L-28.238,-38.89ZM-46.99,37.447C-50.926,36.984 -54.326,36.289 -57.193,35.365C-60.063,34.441 -62.563,33.252 -64.694,31.797C-66.827,30.342 -68.658,28.599 -70.183,26.565C-71.709,24.536 -73.061,22.145 -74.235,19.395L-61.771,7.125C-60.265,10.372 -58.353,12.947 -56.036,14.854C-53.719,16.762 -50.74,18.013 -47.102,18.607L-32.319,19.382C-33.46,15.273 -33.781,11.428 -33.286,7.845C-32.788,4.263 -31.686,1.024 -29.976,-1.868C-28.267,-4.76 -26.052,-7.249 -23.33,-9.335C-20.61,-11.419 -17.605,-13.002 -14.313,-14.081C-11.023,-15.16 -7.548,-15.687 -3.89,-15.66C-0.23,-15.635 3.4,-14.957 7.004,-13.627C8.769,-12.981 10.34,-11.934 11.719,-10.48C13.098,-9.026 14.275,-7.308 15.248,-5.325C16.224,-3.339 17.014,-1.181 17.621,1.152C18.227,3.484 18.648,5.863 18.889,8.287C19.127,10.711 19.2,13.108 19.11,15.478C19.018,17.848 18.77,20.036 18.366,22.04L28.623,22.576L28.623,41.409L-46.99,37.447Z" style="fill:rgb(144,39,142);fill-rule:nonzero;"/>
            </g>
            <g transform="matrix(1,0,0,1,1158.63,290.48)">
                <path d="M0,8.299C-3.015,8.215 -5.569,8.367 -7.667,8.753C-9.761,9.14 -11.471,9.715 -12.796,10.473C-14.118,11.231 -15.085,12.112 -15.691,13.11C-16.297,14.11 -16.62,15.161 -16.656,16.262C-16.692,17.365 -16.48,18.463 -16.022,19.555C-15.562,20.648 -14.909,21.676 -14.063,22.639C-12.813,24.105 -11.325,25.297 -9.596,26.215C-7.869,27.134 -6.177,27.563 -4.522,27.503C-2.757,27.448 -1.371,27.061 -0.357,26.34C0.652,25.621 1.369,24.691 1.793,23.553C2.215,22.416 2.417,21.156 2.398,19.774C2.381,18.393 2.243,16.996 1.985,15.584C1.729,14.17 1.405,12.829 1.02,11.556C0.634,10.284 0.293,9.198 0,8.299M-17.428,-38.894L-7.114,-28.028L3.31,-37.808L15.388,-25.192L3.31,-13.784L-7.114,-24.659L-17.428,-14.871L-29.452,-27.541L-17.428,-38.894ZM-43.461,43.411L-43.461,24.578L-32.319,25.162C-33.46,21.051 -33.772,17.208 -33.256,13.625C-32.743,10.044 -31.62,6.808 -29.892,3.916C-28.164,1.025 -25.948,-1.463 -23.247,-3.551C-20.543,-5.637 -17.549,-7.218 -14.258,-8.299C-10.966,-9.377 -7.491,-9.905 -3.833,-9.878C-0.176,-9.852 3.438,-9.175 7.005,-7.847C8.77,-7.201 10.34,-6.154 11.721,-4.7C13.099,-3.248 14.285,-1.528 15.277,0.457C16.271,2.442 17.07,4.601 17.676,6.933C18.283,9.268 18.706,11.645 18.945,14.069C19.185,16.494 19.257,18.891 19.166,21.26C19.073,23.631 18.807,25.818 18.366,27.818L28.679,28.359L28.679,47.193L-43.461,43.411Z" style="fill:rgb(144,39,142);fill-rule:nonzero;"/>
            </g>
            <g transform="matrix(1,0,0,1,1201.54,339.167)">
                <path d="M0,-71.993L12.355,-59.085L0,-47.472L-12.244,-60.375L0,-71.993ZM7.281,-19.201L-2.15,-39.576L13.513,-47.482L24.323,-23.995C25.095,-22.334 25.683,-20.591 26.087,-18.766C26.492,-16.941 26.686,-15.146 26.668,-13.38C26.647,-11.613 26.399,-9.931 25.923,-8.337C25.444,-6.743 24.701,-5.335 23.689,-4.118C22.678,-2.902 21.399,-1.918 19.855,-1.172C18.312,-0.424 16.455,-0.033 14.286,0L-16.49,-1.612L-16.49,-20.445L7.281,-19.201Z" style="fill:rgb(144,39,142);fill-rule:nonzero;"/>
            </g>
            <g transform="matrix(0.68834,0.725388,0.725388,-0.68834,1069.68,257.543)">
                <rect x="-8.894" y="-20.7" width="17.788" height="16.879" style="fill:rgb(144,39,142);"/>
            </g>
            <g transform="matrix(1,0,0,1,1141.2,276.696)">
                <path d="M0,-25.111L10.313,-14.243L20.737,-24.025L32.815,-11.407L20.737,0L10.313,-10.874L0,-1.086L-12.024,-13.757L0,-25.111Z" style="fill:rgb(144,39,142);fill-rule:nonzero;"/>
            </g>
            <g transform="matrix(0.691463,0.722412,0.722412,-0.691463,1210.41,270.917)">
                <path d="M-8.84,-3.823L9.028,-3.823L8.874,-20.778L-8.913,-20.702L-8.84,-3.823Z" style="fill:rgb(144,39,142);fill-rule:nonzero;"/>
            </g>
            <g transform="matrix(1,0,0,1,741.477,368.68)">
                <path d="M0,-22.432L-7.029,-21.405L-5.634,15.259L-23.982,17.625L-23.982,-21.972L-49.682,-23.319L-48.609,-40.057L0,-37.509L0,-22.432Z" style="fill:rgb(144,39,142);fill-rule:nonzero;"/>
            </g>
            <g transform="matrix(1,0,0,1,806.935,372.859)">
                <path d="M0,-24.307L-4.506,-22.451L-2.95,14.652L-21.3,17.017L-21.3,-22.58L-37.88,-23.45L-36.7,12.882L-55.263,15.237L-54.298,-24.308L-59.877,-24.601L-58.536,-41.324L-1.664,-38.344L0,-24.307Z" style="fill:rgb(144,39,142);fill-rule:nonzero;"/>
            </g>
            <g transform="matrix(1,0,0,1,837.463,338.418)">
                <path d="M0,28.098L-17.33,31.59L-17.919,31.237L-17.919,13.746L-25.808,13.332L-24.359,-3.492L-0.537,-2.244L-0.537,8.755L0,28.098Z" style="fill:rgb(144,39,142);fill-rule:nonzero;"/>
            </g>
            <g transform="matrix(1,0,0,1,894.282,352.995)">
                <path d="M0,23.904L-1.449,40.3L-51.669,39.277L-50.22,22.56L-22.427,23.05L-23.232,4.766C-23.303,3.581 -23.553,2.773 -23.983,2.339C-24.412,1.905 -25.182,1.659 -26.29,1.601L-50.328,0.341L-49.253,-16.396L-14.648,-14.582C-13.324,-14.513 -12.037,-14.355 -10.784,-14.112C-9.533,-13.867 -8.441,-13.272 -7.511,-12.33C-6.688,-11.428 -6.135,-10.451 -5.849,-9.4C-5.562,-8.347 -5.418,-6.98 -5.418,-5.299L-5.418,23.511L0,23.904Z" style="fill:rgb(144,39,142);fill-rule:nonzero;"/>
            </g>
            <g transform="matrix(1,0,0,1,964.783,358.73)">
                <path d="M0,21.863L-0.483,3.704C-0.483,2.666 -0.662,1.932 -1.02,1.502C-1.377,1.071 -2.182,0.825 -3.434,0.759L-18.618,-0.037L-18.35,20.901L0,21.863ZM16.686,39.746L-35.519,37.009L-34.768,-0.884L-40.133,-1.809L-38.685,-17.883L4.453,-15.621C6.599,-15.509 8.432,-15.144 9.953,-14.529C11.473,-13.912 12.716,-13.068 13.682,-11.999C14.646,-10.929 15.354,-9.666 15.8,-8.213C16.247,-6.758 16.471,-5.137 16.471,-3.348L16.686,39.746Z" style="fill:rgb(144,39,142);fill-rule:nonzero;"/>
            </g>
            <g transform="matrix(1,0,0,1,1012.86,347.609)">
                <path d="M0,28.1L-17.33,31.591L-17.921,31.239L-17.921,13.746L-25.808,13.334L-24.359,-3.491L-0.536,-2.242L-0.536,8.757L0,28.1Z" style="fill:rgb(144,39,142);fill-rule:nonzero;"/>
            </g>
            <g transform="matrix(1,0,0,1,1068.01,385.794)">
                <path d="M0,-22.432L-7.029,-21.405L-5.634,15.259L-23.982,17.625L-23.982,-21.972L-49.683,-23.319L-48.609,-40.057L0,-37.509L0,-22.432Z" style="fill:rgb(144,39,142);fill-rule:nonzero;"/>
            </g>
            <g transform="matrix(1,0,0,1,1131.91,349.27)">
                <path d="M0,56.125L-30.207,56.741L-28.759,39.542L-17.867,39.469L-18.082,21.644C-18.153,20.854 -18.253,20.214 -18.377,19.724C-18.503,19.235 -18.699,18.848 -18.966,18.566C-19.236,18.285 -19.584,18.096 -20.013,18.002C-20.442,17.908 -20.979,17.843 -21.623,17.81L-31.71,17.28C-33.212,17.202 -34.107,17.282 -34.393,17.517C-34.536,17.616 -34.679,17.735 -34.822,17.87C-34.967,18.005 -35.107,18.159 -35.251,18.33L-37.021,53.917L-55.8,55.829L-52.528,15.976L-58.215,14.926L-56.872,-0.616L-36.324,0.462L-35.788,5.317L-26.559,0.866L-12.396,1.607C-11.572,1.65 -10.741,1.695 -9.9,1.738C-9.06,1.783 -8.066,2.015 -6.922,2.432C-6.1,2.761 -5.305,3.168 -4.535,3.657C-3.767,4.144 -3.095,4.885 -2.521,5.88C-2.2,6.398 -1.933,6.905 -1.717,7.398C-1.504,7.894 -1.325,8.412 -1.181,8.956C-1.038,9.499 -0.931,10.095 -0.858,10.743C-0.788,11.39 -0.752,12.143 -0.752,13.002L0,56.125Z" style="fill:rgb(144,39,142);fill-rule:nonzero;"/>
            </g>
            <g transform="matrix(1,0,0,1,1163.25,354.398)">
                <path d="M0,51.942L-17.922,54.329L-17.922,14.84L-25.378,14.449L-24.145,-2.387L-0.645,-1.155L0,51.942Z" style="fill:rgb(144,39,142);fill-rule:nonzero;"/>
            </g>
            <g transform="matrix(1,0,0,1,1227.79,412.106)">
                <path d="M0,-55.446L-0.322,-47.523L-3.917,-26.946C-4.311,-24.857 -4.703,-23.072 -5.097,-21.589C-5.491,-20.109 -5.975,-18.649 -6.546,-17.212C-7.763,-14.379 -10.266,-11.81 -14.057,-9.505C-14.881,-9.01 -15.918,-8.475 -17.169,-7.898C-18.421,-7.318 -19.753,-6.744 -21.166,-6.174C-22.579,-5.605 -24.001,-5.053 -25.432,-4.52C-26.862,-3.988 -28.15,-3.517 -29.294,-3.113C-30.761,-2.618 -32.38,-2.148 -34.151,-1.704C-35.921,-1.26 -37.754,-0.839 -39.649,-0.436C-41.547,-0.035 -43.469,0.347 -45.417,0.709C-47.367,1.072 -49.219,1.423 -50.97,1.761L-56.872,3.006L-56.229,-13.54L-45.015,-15.847L-49.952,-33.974L-51.937,-41.376L-58.106,-42.879L-57.355,-58.452L-35.035,-57.283L-33.694,-45.14L-29.401,-19.967L-26.451,-20.991C-24.593,-21.645 -23.429,-22.354 -22.964,-23.117C-22.464,-23.842 -22.124,-24.628 -21.945,-25.478C-21.801,-26.221 -21.676,-26.921 -21.569,-27.577C-21.462,-28.232 -21.336,-29.022 -21.192,-29.944L-19.852,-40.551L-25.808,-41.721L-24.948,-56.754L0,-55.446Z" style="fill:rgb(144,39,142);fill-rule:nonzero;"/>
            </g>
            <g transform="matrix(1,0,0,1,1175.96,418.594)">
                <path d="M0,33.971L-482.074,-21.11L-2.883,55.081L0,33.971Z" style="fill:rgb(144,39,142);fill-rule:nonzero;"/>
            </g>
            <g transform="matrix(1,0,0,1,1219.5,415.46)">
                <path d="M0,13.841L-526.668,-21.226L-1.845,35.067L0,13.841Z" style="fill:rgb(144,39,142);fill-rule:nonzero;"/>
            </g>
            <g transform="matrix(1,0,0,1,1080.77,421.344)">
                <path d="M0,43.716L-385.9,-20.909L-4.09,64.625L0,43.716Z" style="fill:rgb(144,39,142);fill-rule:nonzero;"/>
            </g>
        </g>
    </g>
</svg>
