<svg xmlns="http://www.w3.org/2000/svg" xmlns:xlink="http://www.w3.org/1999/xlink" viewBox="0 0 29.74 19.75"><defs><style>.cls-1{fill:#eff7f9;}.cls-2{fill:#f15aa2;}.cls-3{fill:none;stroke:#373737;stroke-miterlimit:10;stroke-width:1.5px;**/}</style><symbol id="And" data-name="And" viewBox="0 0 29.73 19.75"><path class="cls-1" d="M19.89.75A9.13,9.13,0,1,1,10.8,9.87,9.11,9.11,0,0,1,19.89.75Z"/><path class="cls-1" d="M9.84.75A9.13,9.13,0,1,1,.75,9.87,9.11,9.11,0,0,1,9.84.75Z"/><ellipse class="cls-2" cx="14.87" cy="9.87" rx="4.06" ry="7.6"/><path class="cls-3" d="M19.9.75a9.13,9.13,0,1,1-9.1,9.12A9.11,9.11,0,0,1,19.9.75Z"/><path class="cls-3" d="M9.84.75A9.13,9.13,0,1,1,.75,9.87,9.11,9.11,0,0,1,9.84.75Z"/></symbol></defs><title>Asset 2</title><g id="Layer_2" data-name="Layer 2"><g id="Layer_2-2" data-name="Layer 2"><use id="And-3" data-name="And" width="29.74" height="19.75" xlink:href="#And"/></g></g></svg>