<svg xmlns="http://www.w3.org/2000/svg" viewBox="0 0 84.72 49.76"><defs><style>.cls-1{fill:#90278e;}.cls-2{fill:#fff;**/}</style></defs><title>Asset 3</title><g id="Layer_2" data-name="Layer 2"><g id="Layer_2-2" data-name="Layer 2"><rect class="cls-1" width="84.72" height="49.76"/><polygon class="cls-2" points="6.47 19.45 6.65 33.37 58.63 45.76 59.47 41.44 70.55 43.26 71.61 38.7 75.71 39.46 79.66 23.37 74.65 11.47 25.45 7.58 20.86 12.13 20.67 20.29 6.47 19.45"/><path class="cls-1" d="M26.6,10.76v7.51a.45.45,0,0,0,.46.43l.77,0v2.33L26.05,21a1.67,1.67,0,0,1-.7-.25,2.34,2.34,0,0,1-.49-.45,2.37,2.37,0,0,1-.31-.53,3.42,3.42,0,0,1-.18-.5,3,3,0,0,1-.08-.39q0-.15,0-.15m0,0V12.64l2.32-1.88"/><path class="cls-1" d="M33.28,11.78,31,13l.12-.62,2.31-1.19Zm.09-1.13-2.31,1.19.11-.61L33.49,10Z"/><path class="cls-1" d="M29.29,18.82a4.68,4.68,0,0,1-.65-1.68,4.72,4.72,0,0,1,.09-1.82l5,.26a2.81,2.81,0,0,1,1.29.49,2,2,0,0,1,.66.87A2.25,2.25,0,0,1,35.83,18a3.87,3.87,0,0,1-.31,1.14l1.33.06v2.33l-3.15-.16-.18.1-.27.17-.32.2-.31.18-.23.14-.1.06-.11-.06L31.93,22l-.3-.23-.32-.23-.25-.2-.15-.12-3.3-.17V18.73Zm1.79-1.27a2.31,2.31,0,0,0,.19.58,3.6,3.6,0,0,0,.31.54,3.54,3.54,0,0,0,.38.47,2.27,2.27,0,0,0,.38.34,3.08,3.08,0,0,0,.79-.6,1.39,1.39,0,0,0,.33-.58.5.5,0,0,0-.08-.45.57.57,0,0,0-.44-.19c-1.24-.08-1.86-.12-1.86-.11"/><path class="cls-1" d="M44.37,22.15a2.87,2.87,0,0,1-.93.91,3,3,0,0,1-1.09.38,3.45,3.45,0,0,1-1.15-.07,4.32,4.32,0,0,1-1.09-.45,4.39,4.39,0,0,1-.93-.74,3.43,3.43,0,0,1-.66-1,1.27,1.27,0,0,1-.36.26,1.1,1.1,0,0,1-.44.11l-1.13-.06V19.2l.27,0a2.6,2.6,0,0,0,.87-.1,1.34,1.34,0,0,0,.56-.28,2.34,2.34,0,0,0,.37-.4L39,18a2.22,2.22,0,0,1,.4-.48,2.83,2.83,0,0,1,.91-.62,3.32,3.32,0,0,1,1-.26,4.79,4.79,0,0,1,.52,0,3.87,3.87,0,0,1,.48,0,4.1,4.1,0,0,1,.48.1l.51.17a1.67,1.67,0,0,1,.7.52,3.39,3.39,0,0,1,.47.86,5,5,0,0,1,.26,1.05,5.92,5.92,0,0,1,.07,1.1,4.94,4.94,0,0,1-.13,1,2.12,2.12,0,0,1-.3.74m-1.93-3.26a5.39,5.39,0,0,0-.95.05,1.85,1.85,0,0,0-.63.22.88.88,0,0,0-.36.32.69.69,0,0,0-.12.39,1,1,0,0,0,.08.4,1.29,1.29,0,0,0,.23.39,2,2,0,0,0,.56.44,1.13,1.13,0,0,0,.62.16,1,1,0,0,0,.52-.15.73.73,0,0,0,.26-.34,1.4,1.4,0,0,0,.08-.47,4.4,4.4,0,0,0,0-.51c0-.17-.07-.34-.12-.5l-.12-.4"/><path class="cls-1" d="M52.49,22.36a6.32,6.32,0,0,1-1.26-.26,3.63,3.63,0,0,1-.93-.44,2.72,2.72,0,0,1-.67-.64,4,4,0,0,1-.5-.89l1.54-1.51a2.59,2.59,0,0,0,.7.95,2.24,2.24,0,0,0,1.11.46l1.82.1a3.56,3.56,0,0,1-.12-1.43,3.12,3.12,0,0,1,.41-1.19,3.31,3.31,0,0,1,.82-.93,4,4,0,0,1,2.4-.78,4.24,4.24,0,0,1,1.35.25,1.49,1.49,0,0,1,.58.39,2.5,2.5,0,0,1,.44.64,3.78,3.78,0,0,1,.29.8,5.24,5.24,0,0,1,.16.88,5.29,5.29,0,0,1,0,.89,5,5,0,0,1-.09.81l1.27.06v2.33Zm2.32-9.43,1.51,1.6L54.81,16l-1.52-1.59Zm3.48,5.12a5.39,5.39,0,0,0-.95.05,1.85,1.85,0,0,0-.63.22.88.88,0,0,0-.36.32.69.69,0,0,0-.12.39,1,1,0,0,0,.08.41,1.73,1.73,0,0,0,.24.38,1.81,1.81,0,0,0,.55.44,1.22,1.22,0,0,0,.62.16,1,1,0,0,0,.52-.15.68.68,0,0,0,.26-.34,1.4,1.4,0,0,0,.08-.47,4.4,4.4,0,0,0,0-.51,3.66,3.66,0,0,0-.12-.5,4,4,0,0,0-.12-.4"/><path class="cls-1" d="M61.52,22.83V20.51l1.38.07a3.53,3.53,0,0,1-.12-1.42A3.12,3.12,0,0,1,63.2,18,3.31,3.31,0,0,1,64,17a3.67,3.67,0,0,1,1.11-.58,3.92,3.92,0,0,1,1.29-.2,4.23,4.23,0,0,1,1.34.25,1.57,1.57,0,0,1,.58.39,2.78,2.78,0,0,1,.44.64,3.78,3.78,0,0,1,.29.8,5.24,5.24,0,0,1,.16.88,6.68,6.68,0,0,1,0,.89,5,5,0,0,1-.1.81l1.27.07V23.3Zm3.22-10.16L66,14,67.3,12.8l1.49,1.56L67.3,15.77,66,14.43l-1.27,1.21-1.49-1.57Zm2.15,5.83a5.39,5.39,0,0,0-1,.05,1.85,1.85,0,0,0-.63.22,1,1,0,0,0-.36.32,1,1,0,0,0-.12.39,1,1,0,0,0,.08.41,1.73,1.73,0,0,0,.24.38,1.85,1.85,0,0,0,.56.44,1.22,1.22,0,0,0,.62.16,1.07,1.07,0,0,0,.52-.14.75.75,0,0,0,.26-.35,1.36,1.36,0,0,0,.08-.47,4.4,4.4,0,0,0,0-.51c0-.18-.08-.34-.12-.5s-.09-.29-.13-.4"/><path class="cls-1" d="M73.09,21.11,71.92,18.6l1.94-1,1.33,2.9a2.93,2.93,0,0,1,.22.65,3,3,0,0,1,.07.66,2.18,2.18,0,0,1-.09.63,1.46,1.46,0,0,1-.28.52,1.31,1.31,0,0,1-.47.36,1.76,1.76,0,0,1-.69.15l-3.8-.2V21Zm-.9-6.52,1.53,1.6-1.53,1.43L70.68,16Z"/><rect class="cls-1" x="53.76" y="13.35" width="2.08" height="2.2" transform="translate(5.11 41.69) rotate(-43.5)"/><polygon class="cls-1" points="64.74 12.67 66.01 14.01 67.3 12.8 68.79 14.36 67.3 15.77 66.01 14.43 64.74 15.64 63.25 14.07 64.74 12.67"/><polygon class="cls-1" points="72.19 14.59 73.72 16.19 72.19 17.62 70.68 16.03 72.19 14.59"/><polygon class="cls-1" points="15.37 24.36 14.5 24.49 14.68 29.02 12.41 29.31 12.41 24.42 9.24 24.25 9.37 22.18 15.37 22.5 15.37 24.36"/><polygon class="cls-1" points="23.46 24.64 22.9 24.87 23.09 29.46 20.82 29.75 20.82 24.86 18.78 24.75 18.92 29.24 16.63 29.53 16.75 24.64 16.06 24.61 16.23 22.54 23.25 22.91 23.46 24.64"/><polygon class="cls-1" points="27.23 26.86 25.09 27.29 25.01 27.25 25.01 25.09 24.04 25.04 24.22 22.96 27.16 23.12 27.16 24.47 27.23 26.86"/><path class="cls-1" d="M34.24,28.15l-.18,2L27.86,30,28,28l3.43.06-.1-2.26a.33.33,0,0,0-.37-.39l-3-.15.13-2.07,4.27.22a3.5,3.5,0,0,1,.48.06.75.75,0,0,1,.41.22.81.81,0,0,1,.2.36,1.82,1.82,0,0,1,0,.51V28.1Z"/><path class="cls-1" d="M45,30.81l-6.45-.34.1-4.68L38,25.68l.18-2L43.5,24a2.15,2.15,0,0,1,.68.14,1.17,1.17,0,0,1,.46.31,1.14,1.14,0,0,1,.26.47,1.9,1.9,0,0,1,.08.6ZM43,28.6l-.06-2.24a.38.38,0,0,0-.07-.27c0-.06-.14-.09-.29-.09l-1.88-.1,0,2.58Z"/><polygon class="cls-1" points="48.89 28 46.75 28.43 46.67 28.39 46.67 26.23 45.7 26.18 45.88 24.1 48.82 24.25 48.82 25.61 48.89 28"/><polygon class="cls-1" points="55.7 26.47 54.83 26.6 55 31.13 52.74 31.42 52.74 26.53 49.56 26.36 49.7 24.3 55.7 24.61 55.7 26.47"/><path class="cls-1" d="M63.59,31.66l-3.73.08L60,29.62h1.34l0-2.2a1.19,1.19,0,0,0,0-.24.26.26,0,0,0-.07-.14.21.21,0,0,0-.13-.07.94.94,0,0,0-.2,0l-1.25-.06a.64.64,0,0,0-.33,0l-.05,0,0,.06L59,31.39l-2.32.24.4-4.92-.7-.13.17-1.92,2.53.13.07.6,1.14-.55,1.75.09.31,0a1.24,1.24,0,0,1,.37.08,1.18,1.18,0,0,1,.29.16.73.73,0,0,1,.25.27,1.74,1.74,0,0,1,.1.19.6.6,0,0,1,.06.19.78.78,0,0,1,0,.22,2.16,2.16,0,0,1,0,.28Z"/><polygon class="cls-1" points="67.46 31.78 65.25 32.08 65.25 27.2 64.33 27.15 64.48 25.07 67.38 25.22 67.46 31.78"/><path class="cls-1" d="M75.43,25.65l0,1L75,29.17q-.08.38-.15.66t-.18.54a2.18,2.18,0,0,1-.92.95c-.11.06-.23.13-.39.2l-.49.21-.53.21-.48.17c-.18.06-.38.12-.6.17s-.44.11-.68.16l-.71.14-.68.13-.73.15.08-2,1.38-.28-.61-2.24L69,27.38l-.76-.18.09-1.93,2.75.15.17,1.5L71.8,30l.36-.13a.9.9,0,0,0,.44-.26.81.81,0,0,0,.12-.29c0-.09,0-.18,0-.26s0-.18,0-.29L73,27.49l-.74-.15.11-1.86Z"/><polygon class="cls-1" points="69.03 37.49 9.49 30.69 68.67 40.1 69.03 37.49"/><polygon class="cls-1" points="74.41 34.62 9.37 30.29 74.18 37.24 74.41 34.62"/><polygon class="cls-1" points="57.27 39.03 9.62 31.05 56.77 41.62 57.27 39.03"/></g></g></svg>